<svg xmlns="http://www.w3.org/2000/svg" width="65" height="36" viewBox="0 0 65 36" fill="none">
  <path d="M9.94462 18.0335H0.983729C0.447416 18.0335 0.000488281 18.4804 0.000488281 19.0167V34.3687C0.000488281 34.8379 0.380377 35.1955 0.827304 35.1955H3.84406C4.31334 35.1955 4.67088 34.8156 4.67088 34.3687V30.5251H10.9055V19.0167C10.9279 18.4804 10.4809 18.0335 9.94462 18.0335ZM6.23513 26.7486C6.23513 27.1061 5.94462 27.3966 5.58708 27.3966H5.34127C4.98373 27.3966 4.69323 27.1061 4.69323 26.7486V21.81C4.69323 21.4525 4.98373 21.162 5.34127 21.162H5.58708C5.94462 21.162 6.23513 21.4525 6.23513 21.81V26.7486ZM27.71 18.0335H18.7267V21.162H23.7323C24.4027 21.162 24.9614 21.7206 24.9614 22.391V22.7262H20.0452C19.3078 22.7262 18.7267 23.3072 18.7267 24.0447V29.2067C18.7267 29.9441 19.3078 30.5251 20.0452 30.5251H29.6541V19.9776C29.6541 18.905 28.7826 18.0335 27.71 18.0335ZM24.9837 26.838C24.9837 27.1508 24.7379 27.419 24.4027 27.419H23.9781C23.6653 27.419 23.3971 27.1731 23.3971 26.838V26.4134C23.3971 26.1005 23.6429 25.8324 23.9781 25.8324H24.4027C24.7156 25.8324 24.9837 26.0782 24.9837 26.4134V26.838ZM42.1457 19.3743V30.5251H38.5927C37.967 30.5251 37.453 30.0111 37.453 29.3854V21.8994C37.453 21.4972 37.1178 21.162 36.7156 21.162H36.6485C36.2463 21.162 35.9111 21.4972 35.9111 21.8994V29.3854C35.9111 30.0111 35.3971 30.5251 34.7714 30.5251H31.2184V18.0335H40.805C41.5424 18.0335 42.1457 18.6368 42.1457 19.3743ZM52.7156 18.0335H43.6876V29.2514C43.6876 29.9441 44.2463 30.5251 44.9614 30.5251H54.615V27.3966H49.0061C48.6485 27.3966 48.3804 27.1061 48.3804 26.7709V26.4581C48.3804 26.1005 48.6709 25.8324 49.0061 25.8324H54.615V19.9329C54.6374 18.8827 53.7882 18.0335 52.7156 18.0335ZM49.9446 22.2346C49.9446 22.5028 49.7212 22.7262 49.453 22.7262H48.8497C48.5815 22.7262 48.358 22.5028 48.358 22.2346V21.6313C48.358 21.3631 48.5815 21.1396 48.8497 21.1396H49.453C49.7212 21.1396 49.9446 21.3631 49.9446 21.6313V22.2346ZM60.872 21.162V26.6815C60.872 27.0838 61.2072 27.419 61.6094 27.419H64.0005V30.5474H57.2742C56.6709 30.5474 56.2016 30.0558 56.2016 29.4748V14.9497H60.8943V18.0782H64.0228V21.2067H60.872V21.162ZM9.7435 0H1.25188C0.559147 0 0.000488281 0.558658 0.000488281 1.27374V15.6201H9.56473C10.3245 15.6201 10.9279 15.0167 10.9279 14.257V7.79887H9.36362V6.23463H10.9279V1.18436C10.9279 0.536312 10.3915 0 9.7435 0ZM4.69323 3.75418C4.69323 3.39664 4.98373 3.12849 5.31892 3.12849H5.60943C5.96697 3.12849 6.23513 3.41899 6.23513 3.75418V5.60893C6.23513 5.96647 5.94462 6.23463 5.60943 6.23463H5.31892C4.96138 6.23463 4.69323 5.94413 4.69323 5.60893V3.75418ZM6.25747 11.8659C6.25747 12.2234 5.96697 12.4916 5.63177 12.4916H5.34127C4.98373 12.4916 4.71557 12.2011 4.71557 11.8659V10.0112C4.71557 9.65362 5.00607 9.38546 5.34127 9.38546H5.63177C5.98932 9.38546 6.25747 9.67596 6.25747 10.0112V11.8659ZM17.1625 1.67598V14.905V15.5977V30.5028H13.5647C12.9614 30.5028 12.4921 30.0111 12.4921 29.4301V15.5977V14.905V0H15.4865C16.4251 0 17.1625 0.759776 17.1625 1.67598ZM18.7267 2.4134V0.715083C18.7267 0.312849 19.0396 0 19.4418 0H22.7044C23.0843 0 23.4195 0.312849 23.4195 0.715083V2.4134C23.4195 2.79329 23.1066 3.12849 22.7044 3.12849H19.4418C19.0396 3.12849 18.7267 2.81564 18.7267 2.4134ZM23.4195 15.5531H18.7267V4.62569H22.1904C22.8608 4.62569 23.4195 5.18435 23.4195 5.85474V15.5531ZM31.2184 6.23463H29.6541V15.5977H24.9614V3.12849H35.8888V15.6201H31.196V6.23463H31.2184ZM43.71 10.9274H42.1457V14.5475C42.1457 15.1285 41.6765 15.6201 41.0731 15.6201H37.453V0H41.0731C41.6541 0 42.1457 0.469273 42.1457 1.07262V7.79887H43.71V3.93296C43.71 3.48603 44.0675 3.12849 44.5145 3.12849H48.3804V7.82122H46.8161V9.38546H48.3804V15.6201H44.805C44.1793 15.6201 43.6876 15.1285 43.6876 14.5028V10.9274H43.71Z" fill="url(#paint0_linear_505_11062)"/>
  <path d="M58.0335 2.63796C58.5698 2.63796 59.0837 2.705 59.553 2.79438C57.4971 2.81673 55.8435 4.4927 55.8435 6.57091C55.8435 8.64912 57.5418 10.3474 59.6201 10.3474C61.6983 10.3474 63.3966 8.64912 63.3966 6.57091C63.3966 5.98991 63.2625 5.4536 63.0391 4.96198C63.4636 5.54298 63.7988 6.19103 63.9776 6.88376C63.9106 3.08489 60.8044 0.0234375 56.9832 0.0234375C53.162 0.0234375 50.0558 3.08489 49.9888 6.88376C50.6368 4.47036 54.5698 2.63796 58.0335 2.63796ZM59.0614 8.35862C58.0782 8.35862 57.2737 7.55415 57.2737 6.57091C57.2737 5.58768 58.0782 4.78321 59.0614 4.78321C59.3295 4.78321 59.5977 4.85025 59.8435 4.96198C59.8212 4.89494 59.8212 4.85025 59.8212 4.78321C59.8212 4.38097 60.1564 4.06812 60.5363 4.06812C60.9385 4.06812 61.2513 4.40332 61.2513 4.78321C61.2513 5.18544 60.9161 5.49829 60.5363 5.49829C60.5139 5.49829 60.5139 5.49829 60.4916 5.49829C60.715 5.78879 60.8491 6.16868 60.8491 6.57091C60.8714 7.55415 60.067 8.35862 59.0614 8.35862ZM61.2737 6.19103C61.1173 6.19103 60.9832 6.05695 60.9832 5.90052C60.9832 5.7441 61.1173 5.61002 61.2737 5.61002C61.4301 5.61002 61.5642 5.7441 61.5642 5.90052C61.5418 6.07929 61.4301 6.19103 61.2737 6.19103Z" fill="white"/>
  <path d="M58.0352 11.4205C54.5715 11.4205 50.6385 9.58809 49.9458 7.15234C50.0128 10.9512 53.119 14.0127 56.9402 14.0127C60.7614 14.0127 63.8676 10.9512 63.9346 7.15234C63.3313 9.58809 61.0073 11.4205 58.0352 11.4205Z" fill="white"/>
  <defs>
    <linearGradient id="paint0_linear_505_11062" x1="54.4109" y1="42.2598" x2="3.7398" y2="3.17358" gradientUnits="userSpaceOnUse">
      <stop stop-color="#E24829"/>
      <stop offset="0.9286" stop-color="#ED6921"/>
    </linearGradient>
  </defs>
</svg>